# xmcd CD database file
#
# Track frame offsets:
#	150
#	13524
#	31412
#	49624
#	72708
#	91920
#	113079
#	125378
#	141192
#	180534
#	188223
#	221158
#	251086
#	277927
#	302435
#
# Disc length: 4570 seconds
#
# Revision: 0
# Processed by: cddbd v1.5.2PL0 Copyright (c) Steve Scherf et al.
# Submitted via: CDex 1.70beta2
#
DISCID=d311d80f
DTITLE=Carmel - Everybody's Got A Little ... Soul (2012 edition with bonus tracks)
DYEAR=1987
DGENRE=Jazz
TTITLE0=A Hey Hey (Everybody's Got A Little ... Soul)
TTITLE1=It's All In The Game
TTITLE2=Every Little Bit
TTITLE3=Nothing Good
TTITLE4=Azure
TTITLE5=Sweet And Lovely
TTITLE6=Jazz Robin
TTITLE7=Lay Down
TTITLE8=I Do And Do
TTITLE9=A Hey Hey (Reprise)
TTITLE10=It's all In The Game (12" Mix)
TTITLE11=Tracks Of My Tears (Live at Ronnie Scott's (B-Side of It's All In The Game)
TTITLE12=More More More (Live at Ronnie Scott's (B-Side of It's All In The Game)
TTITLE13=The Crocodile Poem (B-Side of Every Little Bit)
TTITLE14=Long Come Liberty (B-Side of Every Little Bit)
EXTD=YEAR: 1987
EXTT0=
EXTT1=
EXTT2=
EXTT3=
EXTT4=
EXTT5=
EXTT6=
EXTT7=
EXTT8=
EXTT9=
EXTT10=
EXTT11=
EXTT12=
EXTT13=
EXTT14=
PLAYORDER=
